<svg xmlns="http://www.w3.org/2000/svg" xmlns:xlink="http://www.w3.org/1999/xlink" width="21" height="21" viewBox="0 0 21 21"><defs><style>.a,.d{fill:#fff;}.a{clip-rule:evenodd;}.b{fill:#ffc145;}.c{clip-path:url(#a);}</style><clipPath id="a"><path class="a" d="M48.972-212.332c-.162-1.641-1.568-2.2-3.349-2.361l0-2.271-1.4-.006v2.227l-1.093.008-.009-2.232-1.374-.006,0,2.271-2.773.01L39-213.216s1.015-.018,1,0a.733.733,0,0,1,.789.606l.056,6.242a.491.491,0,0,1-.162.339.484.484,0,0,1-.353.123l-1.07.009-.269,1.658,1.794.007.985.012,0,2.273h1.372l0-2.271,1.12.039,0,2.271,1.381,0-.006-2.309c2.317-.123,3.934-.708,4.13-2.9a2.352,2.352,0,0,0-1.977-2.877A2.154,2.154,0,0,0,48.972-212.332ZM47.059-207.4c0,1.726-2.936,1.49-3.858,1.522l-.005-3.028c.9-.021,3.827-.3,3.835,1.513Zm-.655-4.313c.008,1.566-2.442,1.366-3.212,1.376l-.036-2.763c.781,0,3.217-.242,3.22,1.394Z" transform="translate(-38.971 216.974)"/></clipPath></defs><g transform="translate(-598 -189)"><circle class="b" cx="10.5" cy="10.5" r="10.5" transform="translate(598 189)"/><g class="c" transform="translate(603.104 192.764)"><path class="d" d="M28.939-220.525l18.192-4.536,5.477,21.968-18.192,4.536Z" transform="translate(-36.037 219.339)"/></g></g></svg>