<svg xmlns="http://www.w3.org/2000/svg" width="271.459" height="356.173" viewBox="0 0 271.459 356.173"><defs><style>.a{fill:rgba(255,255,255,0.06);}</style></defs><g transform="translate(0 -0.37)"><path class="a" d="M301.11,460.048c.079-2.9.069-5.752.238-8.594a133.256,133.256,0,0,1,1.634-14.149,137.45,137.45,0,0,1,4.357-18.338,135.908,135.908,0,0,1,92.6-90.1c32.616-9.317,63.747-.634,91.837-24.338a83.477,83.477,0,0,0,22.476-29.952,84.976,84.976,0,0,0,6.327-21.209c.277-1.752.307-3.545.564-5.3a57.025,57.025,0,0,0,.376-10.06c-.069-2.564-.406-5.119-.574-7.674a59.434,59.434,0,0,0-1.683-10.04,84.382,84.382,0,0,0-52.072-59.221,86.287,86.287,0,0,0-16.951-4.426,85.056,85.056,0,0,0-17.159-.861,78.412,78.412,0,0,0-11.743,1.525A83.5,83.5,0,0,0,374.8,183.964a85.8,85.8,0,0,0-16.1,27.081,66.225,66.225,0,0,0-3.06,10.575c-.565,2.891-.99,5.812-1.475,8.733a50.939,50.939,0,0,0-.485,8.862v.693h-52.34a7.577,7.577,0,0,1-.168-1.2c.079-2.812.108-5.624.277-8.426a131.369,131.369,0,0,1,5.169-29.021,135.785,135.785,0,0,1,35.854-59.271,132.714,132.714,0,0,1,13.862-11.723,135.491,135.491,0,0,1,31.982-17.486,131.864,131.864,0,0,1,23.021-6.545,150.582,150.582,0,0,1,15.051-1.98c5.456-.465,10.891-.406,16.367-.327a60.039,60.039,0,0,1,6.386.465c3.763.446,7.535.911,11.278,1.505a123.7,123.7,0,0,1,16.03,3.812,135.832,135.832,0,0,1,79.025,63.657,140.483,140.483,0,0,1,9.01,19.615,131.715,131.715,0,0,1,6.1,22.526,114.105,114.105,0,0,1,1.98,22.546c-.089,4.159,0,8.327-.327,12.466s-.851,8.02-1.475,12a124.083,124.083,0,0,1-4.951,19.9,136.581,136.581,0,0,1-35.458,55.7A124.07,124.07,0,0,1,515.894,350c-3.96,2.753-8.06,5.327-12.218,7.773a120.055,120.055,0,0,1-17.348,8.268,117.625,117.625,0,0,1-17.308,5.416c-12.2,2.733-25.606,3.4-38.478,4.346a78.944,78.944,0,0,0-16.664,3.188,84.165,84.165,0,0,0-42.131,28.457c-.258.327-.475.683-.8,1.158a8.82,8.82,0,0,0,.9.168H570.967c.465,0,.921.069,1.465.109v51.131c-30.18-.089-60.29,0-90.411,0H391.63C361.519,460.009,331.4,459.92,301.11,460.048Z" transform="translate(-301.11 -103.505)"/><path class="a" d="M470.526,239.322c0,11.476-3.505,19.328-10.327,25.615a31.112,31.112,0,0,1-23.833,8.288,31.813,31.813,0,0,1-29.536-34.081,30.7,30.7,0,0,1,10.07-21.1,31.2,31.2,0,0,1,23.972-8.545C456.852,210.41,470.892,224.2,470.526,239.322Z" transform="translate(-302.15 -104.544)"/></g></svg>