<svg xmlns="http://www.w3.org/2000/svg" width="129.286" height="41.704" viewBox="0 0 129.286 41.704"><defs><style>.a{fill:#df642b;}</style></defs><path class="a" d="M301.11,145.261c.009-.337.008-.668.028-1a15.483,15.483,0,0,1,.19-1.644,15.968,15.968,0,0,1,.506-2.131,15.792,15.792,0,0,1,10.76-10.47c3.79-1.083,7.407-.074,10.671-2.828a9.7,9.7,0,0,0,2.612-3.48,9.874,9.874,0,0,0,.735-2.464c.032-.2.036-.412.066-.616a6.627,6.627,0,0,0,.044-1.169c-.008-.3-.047-.595-.067-.892a6.905,6.905,0,0,0-.2-1.167,9.8,9.8,0,0,0-6.051-6.881,10.026,10.026,0,0,0-1.97-.514,9.883,9.883,0,0,0-1.994-.1,9.111,9.111,0,0,0-1.365.177,9.7,9.7,0,0,0-5.408,3.1,9.97,9.97,0,0,0-1.871,3.147,7.7,7.7,0,0,0-.356,1.229c-.066.336-.115.675-.171,1.015a5.917,5.917,0,0,0-.056,1.03v.081h-6.082a.881.881,0,0,1-.02-.139c.009-.327.013-.653.032-.979a15.264,15.264,0,0,1,.6-3.372,15.778,15.778,0,0,1,4.166-6.887,15.42,15.42,0,0,1,1.611-1.362,15.744,15.744,0,0,1,3.716-2.032,15.322,15.322,0,0,1,2.675-.761,17.5,17.5,0,0,1,1.749-.23c.634-.054,1.266-.047,1.9-.038a6.977,6.977,0,0,1,.742.054c.437.052.876.106,1.31.175a14.372,14.372,0,0,1,1.863.443,15.783,15.783,0,0,1,9.182,7.4,16.321,16.321,0,0,1,1.047,2.279,15.306,15.306,0,0,1,.709,2.617,13.258,13.258,0,0,1,.23,2.62c-.01.483,0,.968-.038,1.449s-.1.932-.171,1.394a14.419,14.419,0,0,1-.575,2.313,15.871,15.871,0,0,1-4.12,6.472,14.419,14.419,0,0,1-1.68,1.381c-.46.32-.937.619-1.42.9a13.949,13.949,0,0,1-2.016.961,13.67,13.67,0,0,1-2.011.629,31.489,31.489,0,0,1-4.471.505,9.172,9.172,0,0,0-1.936.37,9.78,9.78,0,0,0-4.9,3.307c-.03.038-.055.079-.093.135a1.026,1.026,0,0,0,.1.02h23.137c.054,0,.107.008.17.013v5.941c-3.507-.01-7.006,0-10.506,0h-10.5C308.129,145.257,304.629,145.247,301.11,145.261Z" transform="translate(-301.11 -103.627)"/><path class="a" d="M414.154,212.881a3.742,3.742,0,0,1-1.2,2.976,3.615,3.615,0,0,1-2.769.963,3.7,3.7,0,0,1-3.432-3.96,3.567,3.567,0,0,1,1.17-2.452,3.705,3.705,0,0,1,6.231,2.472Z" transform="translate(-394.589 -197.015)"/><path class="a" d="M745.965,264.87a12.955,12.955,0,1,1,12.955-12.955A12.955,12.955,0,0,1,745.965,264.87Zm0-20.733a7.782,7.782,0,1,0,7.534,7.778,7.667,7.667,0,0,0-7.534-7.778Z" transform="translate(-683.319 -223.17)"/><rect class="a" width="7.42" height="41.583" transform="translate(39.043)"/><rect class="a" width="7.42" height="41.583" transform="translate(121.866 0.055)"/><path class="a" d="M1246.41,386.62" transform="translate(-1137.65 -353.841)"/><path class="a" d="M1192.55,440.48" transform="translate(-1089.987 -401.505)"/><path class="a" d="M1139.323,323.362a3.739,3.739,0,0,1-1.2,2.975,3.618,3.618,0,0,1-2.768.964,3.7,3.7,0,0,1-3.432-3.961,3.567,3.567,0,0,1,1.164-2.452,3.709,3.709,0,0,1,6.236,2.474Z" transform="translate(-1038.943 -294.784)"/><path class="a" d="M1176.6,252v-.045A12.969,12.969,0,0,0,1163.647,239c-.1,0-.2,0-.3.007v5.185c.1,0,.2-.015.3-.015a7.782,7.782,0,0,1,0,15.555c-.1,0-.2-.012-.3-.016V264.9c.1,0,.2.008.3.008a12.9,12.9,0,0,0,8.223-2.952v2.89h7.42V252Z" transform="translate(-1065.34 -223.206)"/><path class="a" d="M999.221,259.718a7.78,7.78,0,0,1,0-15.534V239a12.951,12.951,0,1,0,0,25.9Z" transform="translate(-907.44 -223.205)"/></svg>