<svg xmlns="http://www.w3.org/2000/svg" width="24" height="24" viewBox="0 0 24 24"><defs><style>.a{fill:#8dc351;}.b{fill:#fff;}</style></defs><circle class="a" cx="12" cy="12" r="12"/><path class="b" d="M17.9,9.375c-.6-1.5-2.025-1.575-3.75-1.275L13.55,6l-1.275.375.6,2.025c-.3.075-.675.225-1.05.3l-.6-2.1L9.95,6.975l.6,2.1c-.3.075-.525.15-.825.225h0L8,9.9l.375,1.35s.975-.3.9-.3a.664.664,0,0,1,.9.375l.675,2.4H11l-.15.075.975,3.375a.566.566,0,0,1-.375.6l-.9.3.15,1.575,1.65-.45.9-.225.6,2.1,1.275-.375-.6-2.1a5.524,5.524,0,0,0,1.05-.3l.6,2.1,1.275-.375-.6-2.1c2.1-.75,3.45-1.725,3.075-3.825A2.252,2.252,0,0,0,17.3,12a2.162,2.162,0,0,0,.6-2.625Zm-.45,5.1c.45,1.575-2.325,2.175-3.225,2.475L13.4,14.1c.9-.225,3.525-1.275,4.05.375Zm-1.8-3.825c.45,1.425-1.875,1.95-2.625,2.175l-.75-2.55c.75-.225,3-1.125,3.375.375Z" transform="translate(-2 -1.5)"/></svg>