<svg xmlns="http://www.w3.org/2000/svg" xmlns:xlink="http://www.w3.org/1999/xlink" width="21" height="21" viewBox="0 0 21 21"><defs><style>.a{fill:url(#a);}.b{fill:url(#b);}.c{fill:#fff;}.d{fill:url(#c);}.e{fill:#d48fcd;}.e,.f,.g,.h,.i,.j{fill-rule:evenodd;}.f{fill:#a1dd71;}.g{fill:#5a9ded;}.h{fill:#ff9c92;}.i{fill:#53d3e1;}.j{fill:#f8d136;}.k{fill:#ec681c;}</style><linearGradient id="a" x1="-3.875" y1="15.625" x2="-3.875" y2="14.625" gradientUnits="objectBoundingBox"><stop offset="0" stop-color="#f0b90b"/><stop offset="1" stop-color="#f8d33a"/></linearGradient><linearGradient id="b" x1="-0.045" y1="12.227" x2="-0.034" y2="11.227" xlink:href="#a"/><linearGradient id="c" x1="0.5" y1="0.028" x2="0.5" y2="1.028" gradientUnits="objectBoundingBox"><stop offset="0" stop-color="#e6eafa"/><stop offset="1" stop-color="#e4f5eb"/></linearGradient></defs><g transform="translate(-57 -752)"><g transform="translate(57 752)"><circle class="a" cx="7" cy="7" r="7"/><circle class="b" cx="6.417" cy="6.417" r="6.417" transform="translate(0.583 0.583)"/><circle class="c" cx="5.833" cy="5.833" r="5.833" transform="translate(1.184 1.184)"/><path class="d" d="M20.97,13.537a5.25,5.25,0,1,0,0,7.426,5.25,5.25,0,0,0,0-7.426Z" transform="translate(-10.257 -10.25)"/><path class="e" d="M48.146,40.5l2.161.981-.146.315L48,40.814Z" transform="translate(-41 -34.594)"/><path class="f" d="M34.47,40.814l-2.164.983-.146-.315,2.164-.981Z" transform="translate(-27.47 -34.594)"/><path class="g" d="M48,55.5,50.5,52,48,53.471Zm1.272-2.38-.926.548v.753Z" transform="translate(-41 -44.417)"/><path class="h" d="M48,20v5.619l2.5-1.477Zm.346,1.241v3.773l1.676-.993Z" transform="translate(-41 -17.083)"/><path class="i" d="M33.031,53.668,32.1,53.12l.926,1.3Zm.346-.2L30.88,52l2.5,3.5Z" transform="translate(-26.377 -44.417)"/><path class="j" d="M30.88,24.142l2.5,1.477V20Zm.475-.121,1.676.993V21.241Z" transform="translate(-26.377 -17.083)"/></g><g transform="translate(64 759)"><circle class="k" cx="7" cy="7" r="7" transform="translate(0 0)"/><path class="c" d="M131.12,100.977c0-.074,0-.143.005-.212a3.326,3.326,0,0,1,.937-2.116,3.7,3.7,0,0,1,.476-.409,3.415,3.415,0,0,1,1.11-.528c.836-.232,1.631-.015,2.351-.607a2.087,2.087,0,0,0,.578-.745,2.125,2.125,0,0,0,.162-.527l.015-.133a1.409,1.409,0,0,0,.01-.251c0-.064-.01-.128-.015-.192A1.1,1.1,0,0,0,136.7,95a2.118,2.118,0,0,0-1.332-1.474,2.153,2.153,0,0,0-.436-.108,2.189,2.189,0,0,0-.441-.02,1.966,1.966,0,0,0-.3.039,2.242,2.242,0,0,0-.314.084A2.162,2.162,0,0,0,133,94.1a1.947,1.947,0,0,0-.178.222,2.165,2.165,0,0,0-.237.453,1.56,1.56,0,0,0-.081.261c-.015.074-.025.143-.036.216a1.1,1.1,0,0,0-.01.222v.02h-1.338c0-.01-.005-.02-.005-.029,0-.069.005-.138.005-.212a3.11,3.11,0,0,1,.131-.719,3.252,3.252,0,0,1,.4-.848,3.473,3.473,0,0,1,1.692-1.356,3.155,3.155,0,0,1,.588-.162,3.408,3.408,0,0,1,.385-.049c.142-.01.278-.01.42-.01a1.611,1.611,0,0,1,.162.01c.1.01.193.025.289.039a3.064,3.064,0,0,1,.41.094,3.781,3.781,0,0,1,.608.242,3.621,3.621,0,0,1,.38.227,3.4,3.4,0,0,1,1.034,1.119,3.616,3.616,0,0,1,.233.487,3.084,3.084,0,0,1,.157.562,3,3,0,0,1,.051.562c-.005.1,0,.207-.01.311s-.02.2-.036.3a3.437,3.437,0,0,1-.126.5,3.436,3.436,0,0,1-.461.883,3.29,3.29,0,0,1-.45.506,3,3,0,0,1-.37.3c-.1.069-.208.133-.314.192a3.043,3.043,0,0,1-.446.207,2.849,2.849,0,0,1-.441.133,7.089,7.089,0,0,1-.983.108,1.779,1.779,0,0,0-.425.079,2.171,2.171,0,0,0-1.079.71.11.11,0,0,1-.02.029c.01,0,.015.005.025.005h5.1a.089.089,0,0,1,.035,0v1.262Z" transform="translate(-127.49 -89.632)"/><path class="c" d="M229.163,189.039a.789.789,0,0,1-.263.636.831.831,0,0,1-.9.13.789.789,0,0,1-.46-.766v0a.811.811,0,0,1,.872-.74A.79.79,0,0,1,229.163,189.039Z" transform="translate(-221.226 -183.212)"/></g></g></svg>