<svg xmlns="http://www.w3.org/2000/svg" width="24" height="24" viewBox="0 0 24 24"><defs><style>.a{fill:#f2f2f2;opacity:0.5;}.b{fill:#f3ba2f;}</style></defs><g transform="translate(-810 -345)"><rect class="a" width="24" height="24" rx="7" transform="translate(810 345)"/><g transform="translate(813.655 348.655)"><path class="b" d="M5.044,6.923l3.2-3.2,3.2,3.2,1.862-1.862L8.244,0,3.182,5.061,5.044,6.923M.006,8.238,1.868,6.376,3.729,8.237,1.868,10.1ZM5.044,9.552l3.2,3.2,3.2-3.2,1.863,1.861h0L8.244,16.476,3.182,11.414l0,0L5.044,9.552m7.714-1.314L14.62,6.377l1.862,1.862L14.62,10.1Z" transform="translate(-0.006)"/><path class="b" d="M774.328,772.439h0l-1.889-1.889-1.4,1.4h0l-.16.161-.331.331,0,0,0,0,1.888,1.888,1.889-1.889h0" transform="translate(-764.203 -764.202)"/></g></g></svg>