<svg xmlns="http://www.w3.org/2000/svg" width="21" height="20.765" viewBox="0 0 21 20.765"><defs><style>.a{fill:#f0b90b;}.b,.d{fill:#fff;}.b{fill-rule:evenodd;}.c{fill:#ec681c;}</style></defs><g transform="translate(-57 -788.818)"><g transform="translate(57 788.818)"><circle class="a" cx="7" cy="7" r="7"/><path class="b" d="M321.781,322.982,324.763,320l1.189,1.189-2.982,2.982Zm0,3.563,4.766-4.766,1.189,1.189-4.766,4.766Zm6.548-2.98-4.766,4.766,1.189,1.189,4.766-4.765Zm-8.331,1.2,1.189-1.189,1.189,1.189-1.189,1.189Z" transform="translate(-317.76 -317.76)"/></g><g transform="translate(64 795.582)"><circle class="c" cx="7" cy="7" r="7" transform="translate(0 0)"/><path class="d" d="M131.12,100.977c0-.074,0-.143.005-.212a3.326,3.326,0,0,1,.937-2.116,3.7,3.7,0,0,1,.476-.409,3.415,3.415,0,0,1,1.11-.528c.836-.232,1.631-.015,2.351-.607a2.087,2.087,0,0,0,.578-.745,2.125,2.125,0,0,0,.162-.527l.015-.133a1.409,1.409,0,0,0,.01-.251c0-.064-.01-.128-.015-.192A1.1,1.1,0,0,0,136.7,95a2.118,2.118,0,0,0-1.332-1.474,2.153,2.153,0,0,0-.436-.108,2.189,2.189,0,0,0-.441-.02,1.966,1.966,0,0,0-.3.039,2.242,2.242,0,0,0-.314.084A2.162,2.162,0,0,0,133,94.1a1.947,1.947,0,0,0-.178.222,2.165,2.165,0,0,0-.237.453,1.56,1.56,0,0,0-.081.261c-.015.074-.025.143-.036.216a1.1,1.1,0,0,0-.01.222v.02h-1.338c0-.01-.005-.02-.005-.029,0-.069.005-.138.005-.212a3.11,3.11,0,0,1,.131-.719,3.252,3.252,0,0,1,.4-.848,3.473,3.473,0,0,1,1.692-1.356,3.155,3.155,0,0,1,.588-.162,3.408,3.408,0,0,1,.385-.049c.142-.01.278-.01.42-.01a1.611,1.611,0,0,1,.162.01c.1.01.193.025.289.039a3.064,3.064,0,0,1,.41.094,3.781,3.781,0,0,1,.608.242,3.621,3.621,0,0,1,.38.227,3.4,3.4,0,0,1,1.034,1.119,3.616,3.616,0,0,1,.233.487,3.084,3.084,0,0,1,.157.562,3,3,0,0,1,.051.562c-.005.1,0,.207-.01.311s-.02.2-.036.3a3.437,3.437,0,0,1-.126.5,3.436,3.436,0,0,1-.461.883,3.29,3.29,0,0,1-.45.506,3,3,0,0,1-.37.3c-.1.069-.208.133-.314.192a3.043,3.043,0,0,1-.446.207,2.849,2.849,0,0,1-.441.133,7.089,7.089,0,0,1-.983.108,1.779,1.779,0,0,0-.425.079,2.171,2.171,0,0,0-1.079.71.11.11,0,0,1-.02.029c.01,0,.015.005.025.005h5.1a.089.089,0,0,1,.035,0v1.262Z" transform="translate(-127.49 -89.632)"/><path class="d" d="M229.163,189.039a.789.789,0,0,1-.263.636.831.831,0,0,1-.9.13.789.789,0,0,1-.46-.766v0a.811.811,0,0,1,.872-.74A.79.79,0,0,1,229.163,189.039Z" transform="translate(-221.226 -183.212)"/></g></g></svg>