<svg xmlns="http://www.w3.org/2000/svg" width="37.508" height="37.508" viewBox="0 0 37.508 37.508"><defs><style>.a{opacity:0.9;}.b{fill:#ffe804;}.c{fill-rule:evenodd;}</style></defs><g class="a"><path class="b" d="M18.754,37.508A18.754,18.754,0,1,0,0,18.754,18.754,18.754,0,0,0,18.754,37.508Z"/><path class="c" d="M50.2,41.6c.825,0,1.575,1.275,1.575,2.776v.075c.45-.525.975-.825,1.425-.675s.6.75.525,1.5A3.01,3.01,0,0,1,53.5,46.4a4.455,4.455,0,0,1-.3.6c6,1.5,10.277,6.676,10.2,15.6H59.73c.075-7.577-4.2-11.327-9.752-11.4-6.076-.15-9.452,4.051-9.827,11.4H36.4c.45-9,4.2-14.4,10.8-15.528a5.444,5.444,0,0,1-.375-.675c-.525-1.125-.45-2.25.15-2.551.45-.225,1.2.15,1.65.825v-.3C48.7,42.875,49.378,41.6,50.2,41.6ZM46.827,55.553a.9.9,0,0,1,.825.9V58.7a.851.851,0,0,1-.825.9A.9.9,0,0,1,46,58.7v-2.25C46.077,55.928,46.377,55.553,46.827,55.553Zm6.451,0a.9.9,0,0,1,.825.9V58.7a.851.851,0,0,1-.825.9.9.9,0,0,1-.825-.9v-2.25C52.529,55.928,52.829,55.553,53.279,55.553Z" transform="translate(-31.149 -35.599)"/></g></svg>