<svg xmlns="http://www.w3.org/2000/svg" xmlns:xlink="http://www.w3.org/1999/xlink" width="17.593" height="24.518" viewBox="0 0 17.593 24.518"><defs><style>.a,.c{fill:#fff;}.a{clip-rule:evenodd;}.b{clip-path:url(#a);}</style><clipPath id="a"><path class="a" d="M55.244-209.421c-.263-2.67-2.552-3.578-5.449-3.842l-.006-3.7-2.284-.01v3.623l-1.779.012-.015-3.632-2.236-.009.006,3.7-4.511.016.05,2.4s1.652-.03,1.623,0a1.193,1.193,0,0,1,1.283.986l.092,10.156a.8.8,0,0,1-.264.551.787.787,0,0,1-.574.2l-1.741.015-.438,2.7,2.919.012,1.6.019-.005,3.7,2.233,0-.006-3.7,1.822.063.006,3.7,2.247.007-.009-3.756c3.77-.2,6.4-1.152,6.719-4.719.26-2.874-1.041-4.177-3.217-4.682A3.5,3.5,0,0,0,55.244-209.421ZM52.131-201.4c0,2.809-4.777,2.424-6.277,2.477l-.008-4.927c1.468-.033,6.226-.48,6.239,2.462Zm-1.066-7.017c.013,2.548-3.973,2.223-5.226,2.239l-.059-4.5c1.27,0,5.235-.393,5.239,2.267Z" transform="translate(-38.971 216.974)"/></clipPath></defs><g class="b"><path class="c" d="M28.939-217.681l29.6-7.38,8.911,35.742-29.6,7.38Z" transform="translate(-40.487 215.752)"/></g></svg>