<svg xmlns="http://www.w3.org/2000/svg" width="24" height="24" viewBox="0 0 24 24"><defs><style>.a{fill:#fff;}.b{fill:#345d9d;}</style></defs><circle class="a" cx="10.701" cy="10.701" r="10.701" transform="translate(1.299 1.299)"/><path class="b" d="M12,0A12,12,0,1,0,24,12h0A11.965,11.965,0,0,0,12.07,0Zm.2,12.407L10.954,16.62h6.683a.337.337,0,0,1,.349.325v.11l-.581,2a.433.433,0,0,1-.436.32H6.741l1.714-5.84-1.918.581.436-1.337L8.891,12.2,11.3,4.01a.439.439,0,0,1,.436-.32h2.586a.337.337,0,0,1,.349.325v.11l-2.034,6.915,1.918-.581-.407,1.395Z"/></svg>