<svg xmlns="http://www.w3.org/2000/svg" width="20" height="20" viewBox="0 0 20 20"><defs><style>.a{fill:#2775ca;}.b{fill:#fff;}</style></defs><path class="a" d="M10,20A10,10,0,1,0,0,10,9.976,9.976,0,0,0,10,20Z"/><path class="b" d="M722.254,514.83c0-1.458-.875-1.958-2.625-2.167-1.25-.167-1.5-.5-1.5-1.083s.417-.958,1.25-.958a1.233,1.233,0,0,1,1.375.875.313.313,0,0,0,.292.208h.667a.285.285,0,0,0,.292-.292v-.042a2.082,2.082,0,0,0-1.875-1.708v-1c0-.167-.125-.292-.333-.333h-.625c-.167,0-.292.125-.333.333v.958a2.125,2.125,0,0,0-2.042,2.042c0,1.375.833,1.917,2.583,2.125,1.167.208,1.542.458,1.542,1.125s-.583,1.125-1.375,1.125c-1.083,0-1.458-.458-1.583-1.083a.3.3,0,0,0-.292-.25h-.708a.285.285,0,0,0-.292.292v.042a2.327,2.327,0,0,0,2.208,2v1c0,.167.125.292.333.333h.625c.167,0,.292-.125.333-.333v-1A2.282,2.282,0,0,0,722.254,514.83Z" transform="translate(-709.504 -503.247)"/><path class="b" d="M253.361,304.712a6.235,6.235,0,0,1,0-11.708.418.418,0,0,0,.25-.417V292a.317.317,0,0,0-.25-.333.251.251,0,0,0-.167.042,7.5,7.5,0,0,0,0,14.292.253.253,0,0,0,.375-.167c.042-.042.042-.083.042-.167v-.583A.555.555,0,0,0,253.361,304.712Zm4.417-13a.253.253,0,0,0-.375.167c-.042.042-.042.083-.042.167v.583a.552.552,0,0,0,.25.417,6.235,6.235,0,0,1,0,11.708.418.418,0,0,0-.25.417v.583a.317.317,0,0,0,.25.333.251.251,0,0,0,.167-.042,7.53,7.53,0,0,0,0-14.333Z" transform="translate(-245.486 -288.753)"/></svg>