<svg xmlns="http://www.w3.org/2000/svg" width="21" height="20" viewBox="0 0 21 20"><defs><style>.a{fill:#fff;}</style></defs><g transform="translate(-1123 -271.5)"><ellipse cx="10.5" cy="10" rx="10.5" ry="10" transform="translate(1123 271.5)"/><g transform="translate(1127.51 276.672)"><path class="a" d="M9.62,1.229l-1.349.687L1.759,5.234A3.879,3.879,0,0,1,7.5,1.345L8.269.952,8.384.893A4.739,4.739,0,0,0,.862,4.729q0,.181.014.361a.862.862,0,0,1-.468.833L0,6.13V7.1l1.2-.611h0l.388-.2.382-.195h0L8.835,2.6,9.606,2.2,11.2,1.391V.423Z" transform="translate(0 0.011)"/><path class="a" d="M11.2,50,2.359,54.5l-.771.394L0,55.7v.967l1.577-.8,1.349-.687L9.444,51.86a3.954,3.954,0,0,1,.033.51A3.88,3.88,0,0,1,3.7,55.751l-.047.025-.837.426a4.739,4.739,0,0,0,7.523-3.833c0-.122,0-.244-.014-.364a.862.862,0,0,1,.468-.833l.408-.208Z" transform="translate(0 -47.63)"/></g></g></svg>